<mxfile host="app.diagrams.net" modified="2021-08-07T07:10:18.051Z" agent="5.0 (Windows NT 10.0; Win64; x64) AppleWebKit/537.36 (KHTML, like Gecko) Chrome/92.0.4515.131 Safari/537.36" etag="tQevS226eHtIC9oj299A" version="14.9.4" type="github">
  <diagram id="R2lEEEUBdFMjLlhIrx00" name="Page-1">
    <mxGraphModel dx="763" dy="386" grid="1" gridSize="10" guides="1" tooltips="1" connect="1" arrows="1" fold="1" page="1" pageScale="1" pageWidth="850" pageHeight="1100" math="0" shadow="0" extFonts="Permanent Marker^https://fonts.googleapis.com/css?family=Permanent+Marker">
      <root>
        <mxCell id="0" />
        <mxCell id="1" parent="0" />
        <mxCell id="SjEpmejSeZVBceK6zqRD-4" value="" style="rounded=0;whiteSpace=wrap;html=1;" vertex="1" parent="1">
          <mxGeometry x="75" y="40" width="725" height="1000" as="geometry" />
        </mxCell>
        <mxCell id="SjEpmejSeZVBceK6zqRD-1" value="Actor" style="shape=umlActor;verticalLabelPosition=bottom;verticalAlign=top;html=1;" vertex="1" parent="1">
          <mxGeometry x="190" y="470" width="30" height="60" as="geometry" />
        </mxCell>
        <mxCell id="SjEpmejSeZVBceK6zqRD-2" value="" style="html=1;outlineConnect=0;whiteSpace=wrap;fillColor=#ffff99;verticalLabelPosition=bottom;verticalAlign=top;align=center;shape=mxgraph.archimate3.actor;" vertex="1" parent="1">
          <mxGeometry x="180" y="160" width="50" height="95" as="geometry" />
        </mxCell>
        <mxCell id="SjEpmejSeZVBceK6zqRD-5" value="Add Restaurant" style="ellipse;whiteSpace=wrap;html=1;" vertex="1" parent="1">
          <mxGeometry x="350" y="167.5" width="120" height="80" as="geometry" />
        </mxCell>
        <mxCell id="SjEpmejSeZVBceK6zqRD-6" value="Add Restaurant location / opening &amp;amp; closing timings&amp;nbsp;" style="ellipse;whiteSpace=wrap;html=1;" vertex="1" parent="1">
          <mxGeometry x="540" y="100" width="120" height="80" as="geometry" />
        </mxCell>
        <mxCell id="SjEpmejSeZVBceK6zqRD-7" value="Add Restaurant Menu and prices" style="ellipse;whiteSpace=wrap;html=1;" vertex="1" parent="1">
          <mxGeometry x="550" y="247.5" width="120" height="80" as="geometry" />
        </mxCell>
        <mxCell id="SjEpmejSeZVBceK6zqRD-8" value="Search a Restaurant" style="ellipse;whiteSpace=wrap;html=1;" vertex="1" parent="1">
          <mxGeometry x="350" y="400" width="120" height="80" as="geometry" />
        </mxCell>
        <mxCell id="SjEpmejSeZVBceK6zqRD-9" value="View Restaurant Details" style="ellipse;whiteSpace=wrap;html=1;" vertex="1" parent="1">
          <mxGeometry x="350" y="530" width="120" height="80" as="geometry" />
        </mxCell>
        <mxCell id="SjEpmejSeZVBceK6zqRD-10" value="Add / remove Items from cart" style="ellipse;whiteSpace=wrap;html=1;" vertex="1" parent="1">
          <mxGeometry x="350" y="650" width="120" height="80" as="geometry" />
        </mxCell>
      </root>
    </mxGraphModel>
  </diagram>
</mxfile>
